<svg width="24" height="24" viewBox="0 0 24 24" fill="none" xmlns="http://www.w3.org/2000/svg">
<mask id="mask0_8_88" style="mask-type:alpha" maskUnits="userSpaceOnUse" x="0" y="0" width="24" height="24">
<circle cx="12" cy="12" r="11.5" fill="#C4C4C4" stroke="black"/>
</mask>
<g mask="url(#mask0_8_88)">
<mask id="mask1_8_88" style="mask-type:alpha" maskUnits="userSpaceOnUse" x="0" y="-5" width="25" height="31">
<path d="M0 -5H25V26H0V-5Z" fill="#D2B8A5"/>
<path d="M0 -5V-6H-1V-5H0ZM25 -5H26V-6H25V-5ZM25 26V27H26V26H25ZM0 26H-1V27H0V26ZM0 -4H25V-6H0V-4ZM24 -5V26H26V-5H24ZM25 25H0V27H25V25ZM1 26V-5H-1V26H1Z" fill="black"/>
</mask>
<g mask="url(#mask1_8_88)">
<path d="M6.26878 24.2413C6.26878 25.251 9.57208 29.3423 11.2237 31.2617C11.6992 32.3134 13.476 34.5431 16.7793 35.048C20.9084 35.679 20.7207 34.4169 24.1742 28.9742C27.6276 23.5314 26.3138 19.0352 26.4264 9.80623C26.5391 0.577229 25.5631 -4.07672 24.3994 -6.91641C23.2358 -9.75611 17.5676 -10.1505 17.0796 -9.59835C16.5916 -9.04619 15.8784 -5.3388 15.5406 -1.55255C15.2027 2.23371 13.0255 2.94364 11.2237 4.99453C9.42194 7.04542 9.3844 10.3584 9.42193 14.6968C9.45947 19.0352 6.26878 22.9793 6.26878 24.2413Z" fill="#366B75"/>
<path d="M15.5446 25.4153C15.9316 25.2323 16.2605 24.6316 16.6144 24.2759C17.0517 23.8364 17.4908 23.4543 17.8928 22.8911C18.2388 22.4063 18.7426 21.8184 18.8771 20.9191C18.9362 20.5238 19.0427 20.1987 19.0731 19.7666C19.1206 19.0934 19.2012 18.4121 19.2983 17.7639C19.6101 15.6829 20.165 13.7128 20.95 12.2466C21.4524 11.3082 22.0088 10.4811 22.5266 9.57785C22.9661 8.8111 23.4239 8.19085 23.953 7.74607" stroke="black" stroke-opacity="0.05" stroke-width="68" stroke-linecap="round"/>
<path d="M18.3598 22.2601C17.9844 24.7843 15.8072 24.7054 14.6436 27.5451C15.7322 29.5697 18.037 33.6031 18.5475 33.54C19.1856 33.4611 22.2637 33.6189 22.7141 34.0133C23.1646 34.4077 23.8403 34.0133 24.8913 33.6189C25.9424 33.2245 26.8057 31.4102 26.9559 30.3848C27.106 29.3593 27.2562 27.5451 28.1946 20.0514C29.1331 12.5578 25.5295 4.9064 24.8913 5.3008C24.2532 5.6952 22.564 9.3237 22.2637 11.8479C21.9634 14.372 21.5129 14.4509 20.3117 16.4229C19.1105 18.3949 18.7352 19.7359 18.3598 22.2601Z" fill="#193136"/>
<path d="M16.8959 -3.51051C16.8959 -4.52018 13.5926 -8.61145 11.9409 -10.5309C11.4655 -11.5826 9.68868 -13.8123 6.38538 -14.3171C2.25625 -14.9482 2.44394 -13.6861 -1.00952 -8.24334C-4.46297 -2.80059 -3.14916 1.69559 -3.26177 10.9246C-3.37438 20.1536 -2.3984 24.8076 -1.23474 27.6472C-0.0710769 30.4869 5.59709 30.8813 6.08508 30.3292C6.57307 29.777 7.28628 26.0696 7.62412 22.2834C7.96196 18.4971 10.1391 17.7872 11.9409 15.7363C13.7427 13.6854 13.7803 10.3724 13.7427 6.03402C13.7052 1.69559 16.8959 -2.24843 16.8959 -3.51051Z" fill="#53A5B5"/>
<path d="M7.62008 -4.68445C7.2331 -4.50148 6.90418 -3.90076 6.55026 -3.54506C6.11299 -3.10561 5.67388 -2.72342 5.2719 -2.16028C4.92583 -1.67546 4.42208 -1.08753 4.28758 -0.188265C4.22845 0.207058 4.12201 0.532147 4.09155 0.964266C4.04409 1.63743 3.96344 2.31873 3.86632 2.96695C3.55457 5.04793 2.99963 7.01799 2.21467 8.4842C1.71229 9.4226 1.15587 10.2497 0.638096 11.153C0.198583 11.9197 -0.25918 12.54 -0.78833 12.9848" stroke="black" stroke-opacity="0.05" stroke-width="68" stroke-linecap="round"/>
<path d="M4.80476 -1.52925C5.18013 -4.05343 7.35731 -3.97455 8.52098 -6.81424C7.43239 -8.83884 5.12758 -12.8723 4.61707 -12.8092C3.97894 -12.7303 0.900856 -12.888 0.450406 -13.2824C-4.33922e-05 -13.6768 -0.67572 -13.2824 -1.72677 -12.888C-2.77782 -12.4936 -3.64119 -10.6794 -3.79134 -9.65394C-3.94149 -8.62849 -4.09164 -6.81424 -5.03008 0.679399C-5.96851 8.17304 -2.36491 15.8244 -1.72677 15.43C-1.08863 15.0356 0.600556 11.4071 0.900856 8.88296C1.20116 6.35879 1.65161 6.27991 2.85281 4.3079C4.05401 2.33589 4.42938 0.99492 4.80476 -1.52925Z" fill="#65C8DB"/>
</g>
<rect y="-5" width="25" height="31" fill="black" fill-opacity="0.14"/>
</g>
</svg>
