<svg width="24" height="24" viewBox="0 0 24 24" fill="none" xmlns="http://www.w3.org/2000/svg">
<mask id="mask0_32_752" style="mask-type:alpha" maskUnits="userSpaceOnUse" x="0" y="0" width="24" height="24">
<circle cx="12" cy="12" r="11.5" fill="#C4C4C4" stroke="black"/>
</mask>
<g mask="url(#mask0_32_752)">
<mask id="mask1_32_752" style="mask-type:alpha" maskUnits="userSpaceOnUse" x="-1" y="-5" width="25" height="31">
<path d="M-1 -5H24V26H-1V-5Z" fill="#D2B8A5"/>
<path d="M-1 -5V-6H-2V-5H-1ZM24 -5H25V-6H24V-5ZM24 26V27H25V26H24ZM-1 26H-2V27H-1V26ZM-1 -4H24V-6H-1V-4ZM23 -5V26H25V-5H23ZM24 25H-1V27H24V25ZM0 26V-5H-2V26H0Z" fill="black"/>
</mask>
<g mask="url(#mask1_32_752)">
<path d="M5.26878 24.2413C5.26878 25.251 8.57209 29.3423 10.2237 31.2617C10.6992 32.3134 12.476 34.5431 15.7793 35.048C19.9084 35.679 19.7207 34.4169 23.1742 28.9742C26.6276 23.5314 25.3138 19.0352 25.4264 9.80624C25.5391 0.577229 24.5631 -4.07671 23.3994 -6.91641C22.2358 -9.7561 16.5676 -10.1505 16.0796 -9.59834C15.5916 -9.04618 14.8784 -5.3388 14.5406 -1.55254C14.2027 2.23372 12.0255 2.94364 10.2237 4.99453C8.42194 7.04542 8.3844 10.3584 8.42194 14.6968C8.45947 19.0352 5.26878 22.9793 5.26878 24.2413Z" fill="#ADD18D"/>
<path d="M14.5445 25.4153C14.9315 25.2323 15.2604 24.6316 15.6143 24.2759C16.0516 23.8364 16.4907 23.4543 16.8927 22.8911C17.2387 22.4063 17.7425 21.8184 17.877 20.9191C17.9361 20.5238 18.0425 20.1987 18.073 19.7666C18.1205 19.0934 18.2011 18.4121 18.2982 17.7639C18.61 15.6829 19.1649 13.7128 19.9499 12.2466C20.4523 11.3082 21.0087 10.4811 21.5265 9.57785C21.966 8.8111 22.4237 8.19085 22.9529 7.74607" stroke="black" stroke-opacity="0.05" stroke-width="68" stroke-linecap="round"/>
<path d="M17.3598 22.2601C16.9844 24.7843 14.8072 24.7054 13.6436 27.5451C14.7322 29.5697 17.037 33.6031 17.5475 33.54C18.1856 33.4611 21.2637 33.6189 21.7141 34.0133C22.1646 34.4077 22.8403 34.0133 23.8913 33.6189C24.9424 33.2245 25.8057 31.4102 25.9559 30.3848C26.106 29.3593 26.2562 27.5451 27.1946 20.0514C28.1331 12.5578 24.5295 4.9064 23.8913 5.3008C23.2532 5.6952 21.564 9.3237 21.2637 11.8479C20.9634 14.372 20.5129 14.4509 19.3117 16.4229C18.1105 18.3949 17.7352 19.7359 17.3598 22.2601Z" fill="#90BE6D"/>
<path d="M15.8959 -3.51051C15.8959 -4.52018 12.5926 -8.61145 10.9409 -10.5309C10.4655 -11.5826 8.68868 -13.8123 5.38538 -14.3171C1.25625 -14.9482 1.44394 -13.6861 -2.00952 -8.24334C-5.46297 -2.80059 -4.14916 1.69559 -4.26177 10.9246C-4.37438 20.1536 -3.3984 24.8075 -2.23474 27.6472C-1.07108 30.4869 4.59709 30.8813 5.08508 30.3292C5.57307 29.777 6.28628 26.0696 6.62412 22.2834C6.96196 18.4971 9.13913 17.7872 10.9409 15.7363C12.7427 13.6854 12.7803 10.3724 12.7427 6.03401C12.7052 1.69559 15.8959 -2.24843 15.8959 -3.51051Z" fill="#C9E3AC"/>
<path d="M6.62008 -4.68445C6.2331 -4.50148 5.90418 -3.90076 5.55026 -3.54506C5.11299 -3.10561 4.67388 -2.72342 4.2719 -2.16027C3.92583 -1.67546 3.42208 -1.08753 3.28758 -0.188265C3.22845 0.207058 3.12201 0.532148 3.09155 0.964266C3.04409 1.63743 2.96344 2.31873 2.86632 2.96695C2.55457 5.04793 1.99963 7.01799 1.21467 8.4842C0.712288 9.4226 0.155874 10.2497 -0.361904 11.153C-0.801417 11.9197 -1.25918 12.54 -1.78833 12.9848" stroke="black" stroke-opacity="0.05" stroke-width="68" stroke-linecap="round"/>
<path d="M3.80476 -1.52925C4.18013 -4.05343 6.35731 -3.97455 7.52098 -6.81424C6.43239 -8.83884 4.12758 -12.8723 3.61707 -12.8092C2.97894 -12.7303 -0.099144 -12.888 -0.549594 -13.2824C-1.00004 -13.6768 -1.67572 -13.2824 -2.72677 -12.888C-3.77782 -12.4936 -4.64119 -10.6794 -4.79134 -9.65394C-4.94149 -8.62849 -5.09164 -6.81424 -6.03008 0.679398C-6.96851 8.17303 -3.36491 15.8244 -2.72677 15.43C-2.08863 15.0356 -0.399444 11.4071 -0.099144 8.88296C0.201157 6.35879 0.651607 6.27991 1.85281 4.3079C3.05401 2.33589 3.42938 0.994919 3.80476 -1.52925Z" fill="#EAEFBD"/>
</g>
<rect x="-1" y="-5" width="25" height="31" fill="black" fill-opacity="0.14"/>
</g>
</svg>
