<svg width="666" height="393" viewBox="0 0 666 393" fill="none" xmlns="http://www.w3.org/2000/svg">
<mask id="mask0_8_64" style="mask-type:alpha" maskUnits="userSpaceOnUse" x="0" y="0" width="666" height="393">
<path d="M0 0H666V393H0V0Z" fill="#D2B8A5"/>
<path d="M0 0V-1H-1V0H0ZM666 0H667V-1H666V0ZM666 393V394H667V393H666ZM0 393H-1V394H0V393ZM0 1H666V-1H0V1ZM665 0V393H667V0H665ZM666 392H0V394H666V392ZM1 393V0H-1V393H1Z" fill="black"/>
</mask>
<g mask="url(#mask0_8_64)">
<path d="M167 370.705C167 383.505 255 435.371 299 459.705C311.667 473.038 359 501.305 447 507.705C557 515.705 552 499.705 644 430.705C736 361.705 701 304.705 704 187.705C707 70.7048 681 11.7048 650 -24.2952C619 -60.2952 468 -65.2952 455 -58.2952C442 -51.2953 423 -4.29525 414 43.7047C405 91.7047 347 100.705 299 126.705C251 152.705 250 194.705 251 249.705C252 304.705 167 354.705 167 370.705Z" fill="#854D27"/>
<path d="M414.106 385.587C424.415 383.268 433.177 375.652 442.606 371.143C454.255 365.572 465.953 360.727 476.662 353.587C485.881 347.441 499.301 339.988 502.884 328.587C504.459 323.576 507.294 319.454 508.106 313.976C509.37 305.442 511.519 296.805 514.106 288.587C522.411 262.206 537.195 237.231 558.106 218.643C571.49 206.747 586.312 196.261 600.106 184.81C611.815 175.089 624.009 167.226 638.106 161.587" stroke="black" stroke-opacity="0.05" stroke-width="68" stroke-linecap="round"/>
<path d="M489.106 345.587C479.106 377.587 421.106 376.587 390.106 412.587C419.106 438.254 480.506 489.387 494.106 488.587C511.106 487.587 593.106 489.587 605.106 494.587C617.106 499.587 635.106 494.587 663.106 489.587C691.106 484.587 714.106 461.587 718.106 448.587C722.106 435.587 726.106 412.587 751.106 317.587C776.106 222.587 680.106 125.587 663.106 130.587C646.106 135.587 601.106 181.587 593.106 213.587C585.106 245.587 573.106 246.587 541.106 271.587C509.106 296.587 499.106 313.587 489.106 345.587Z" fill="#2E1F27"/>
<path d="M450.106 18.8827C450.106 6.0827 362.106 -45.784 318.106 -70.1173C305.439 -83.4506 258.106 -111.717 170.106 -118.117C60.1059 -126.117 65.1059 -110.117 -26.8941 -41.1173C-118.894 27.8827 -83.8941 84.8827 -86.8941 201.883C-89.8941 318.883 -63.8941 377.883 -32.8941 413.883C-1.89409 449.883 149.106 454.883 162.106 447.883C175.106 440.883 194.106 393.883 203.106 345.883C212.106 297.883 270.106 288.883 318.106 262.883C366.106 236.883 367.106 194.883 366.106 139.883C365.106 84.8827 450.106 34.8827 450.106 18.8827Z" fill="#DD7230"/>
<path d="M203 4C192.691 6.31955 183.929 13.9352 174.5 18.4444C162.851 24.0156 151.153 28.8608 140.444 36C131.225 42.1462 117.805 49.5996 114.222 61C112.647 66.0117 109.812 70.133 109 75.6111C107.736 84.1451 105.587 92.7822 103 101C94.6947 127.381 79.9112 152.357 59 170.944C45.6165 182.841 30.7936 193.326 17 204.778C5.29137 214.498 -6.90344 222.361 -21 228" stroke="black" stroke-opacity="0.05" stroke-width="68" stroke-linecap="round"/>
<path d="M128 44C138 12 196 13 227 -23C198 -48.6667 136.6 -99.8 123 -99C106 -98 24 -100 12 -105C1.52588e-05 -110 -18 -105 -46 -100C-74 -95 -97 -72 -101 -59C-105 -46 -109 -23 -134 72C-159 167 -63 264 -46 259C-29 254 16 208 24 176C32 144 44 143 76 118C108 93 118 76 128 44Z" fill="#F4C95D"/>
</g>
<rect width="666" height="393" fill="black" fill-opacity="0.14"/>
</svg>
