<svg width="24" height="24" viewBox="0 0 24 24" fill="none" xmlns="http://www.w3.org/2000/svg">
<mask id="mask0_32_735" style="mask-type:alpha" maskUnits="userSpaceOnUse" x="0" y="0" width="24" height="24">
<circle cx="12" cy="12" r="11.5" fill="#C4C4C4" stroke="black"/>
</mask>
<g mask="url(#mask0_32_735)">
<mask id="mask1_32_735" style="mask-type:alpha" maskUnits="userSpaceOnUse" x="-1" y="-5" width="25" height="31">
<path d="M-1 -5H24V26H-1V-5Z" fill="#D2B8A5"/>
<path d="M-1 -5V-6H-2V-5H-1ZM24 -5H25V-6H24V-5ZM24 26V27H25V26H24ZM-1 26H-2V27H-1V26ZM-1 -4H24V-6H-1V-4ZM23 -5V26H25V-5H23ZM24 25H-1V27H24V25ZM0 26V-5H-2V26H0Z" fill="black"/>
</mask>
<g mask="url(#mask1_32_735)">
<path d="M5.26878 24.2413C5.26878 25.251 8.57209 29.3423 10.2237 31.2617C10.6992 32.3134 12.476 34.5431 15.7793 35.048C19.9084 35.679 19.7207 34.4169 23.1742 28.9742C26.6276 23.5314 25.3138 19.0352 25.4264 9.80624C25.5391 0.577229 24.5631 -4.07671 23.3994 -6.91641C22.2358 -9.7561 16.5676 -10.1505 16.0796 -9.59834C15.5916 -9.04618 14.8784 -5.3388 14.5406 -1.55254C14.2027 2.23372 12.0255 2.94364 10.2237 4.99453C8.42194 7.04542 8.3844 10.3584 8.42194 14.6968C8.45947 19.0352 5.26878 22.9793 5.26878 24.2413Z" fill="#854D27"/>
<path d="M14.5445 25.4153C14.9315 25.2323 15.2604 24.6316 15.6144 24.2759C16.0516 23.8364 16.4907 23.4543 16.8927 22.8911C17.2388 22.4063 17.7425 21.8184 17.877 20.9191C17.9362 20.5238 18.0426 20.1987 18.0731 19.7666C18.1205 19.0934 18.2012 18.4121 18.2983 17.7639C18.61 15.6829 19.165 13.7128 19.9499 12.2466C20.4523 11.3082 21.0087 10.4811 21.5265 9.57785C21.966 8.8111 22.4238 8.19085 22.9529 7.74607" stroke="black" stroke-opacity="0.05" stroke-width="68" stroke-linecap="round"/>
<path d="M17.3599 22.2601C16.9845 24.7843 14.8073 24.7054 13.6436 27.5451C14.7322 29.5697 17.037 33.6031 17.5475 33.54C18.1857 33.4611 21.2638 33.6189 21.7142 34.0133C22.1647 34.4077 22.8403 34.0133 23.8914 33.6189C24.9424 33.2245 25.8058 31.4102 25.9559 30.3848C26.1061 29.3593 26.2562 27.5451 27.1947 20.0514C28.1331 12.5578 24.5295 4.9064 23.8914 5.3008C23.2532 5.6952 21.5641 9.3237 21.2638 11.8479C20.9635 14.372 20.513 14.4509 19.3118 16.4229C18.1106 18.3949 17.7352 19.7359 17.3599 22.2601Z" fill="#2E1F27"/>
<path d="M15.8959 -3.51051C15.8959 -4.52018 12.5926 -8.61145 10.9409 -10.5309C10.4655 -11.5826 8.68868 -13.8123 5.38538 -14.3171C1.25625 -14.9482 1.44394 -13.6861 -2.00952 -8.24334C-5.46297 -2.80059 -4.14916 1.69559 -4.26177 10.9246C-4.37438 20.1536 -3.3984 24.8075 -2.23474 27.6472C-1.07108 30.4869 4.59709 30.8813 5.08508 30.3292C5.57307 29.777 6.28628 26.0696 6.62412 22.2834C6.96196 18.4971 9.13913 17.7872 10.9409 15.7363C12.7427 13.6854 12.7803 10.3724 12.7427 6.03401C12.7052 1.69559 15.8959 -2.24843 15.8959 -3.51051Z" fill="#DD7230"/>
<path d="M6.62014 -4.68451C6.23316 -4.50154 5.90424 -3.90082 5.55032 -3.54513C5.11305 -3.10567 4.67394 -2.72348 4.27196 -2.16034C3.92589 -1.67552 3.42214 -1.08759 3.28764 -0.188326C3.22852 0.206997 3.12208 0.532086 3.09161 0.964205C3.04415 1.63737 2.9635 2.31867 2.86639 2.96689C2.55463 5.04787 1.99969 7.01793 1.21473 8.48414C0.712349 9.42253 0.155935 10.2496 -0.361843 11.1529C-0.801356 11.9197 -1.25912 12.5399 -1.78827 12.9847" stroke="black" stroke-opacity="0.05" stroke-width="68" stroke-linecap="round"/>
<path d="M3.80482 -1.52925C4.1802 -4.05343 6.35737 -3.97455 7.52104 -6.81424C6.43245 -8.83884 4.12764 -12.8723 3.61713 -12.8092C2.979 -12.7303 -0.0990829 -12.888 -0.549533 -13.2824C-0.999982 -13.6768 -1.67566 -13.2824 -2.72671 -12.888C-3.77776 -12.4936 -4.64112 -10.6794 -4.79127 -9.65394C-4.94142 -8.62849 -5.09158 -6.81424 -6.03001 0.679399C-6.96845 8.17304 -3.36485 15.8244 -2.72671 15.43C-2.08857 15.0356 -0.399383 11.4071 -0.0990829 8.88296C0.201218 6.35879 0.651668 6.27991 1.85287 4.3079C3.05407 2.33589 3.42945 0.99492 3.80482 -1.52925Z" fill="#F4C95D"/>
</g>
<rect x="-1" y="-5" width="25" height="31" fill="black" fill-opacity="0.14"/>
</g>
</svg>
